<svg width="10" height="6" viewBox="0 0 10 6" fill="none" xmlns="http://www.w3.org/2000/svg">
<path d="M4.99996 3.92504L1.91244 0.837522C1.68463 0.609716 1.31529 0.609716 1.08748 0.837522C0.859675 1.06533 0.859675 1.43467 1.08748 1.66248L4.58748 5.16248C4.81529 5.39029 5.18463 5.39029 5.41244 5.16248L8.91244 1.66248C9.14024 1.43467 9.14024 1.06533 8.91244 0.837522C8.68463 0.609716 8.31529 0.609716 8.08748 0.837522L4.99996 3.92504Z" fill="#646464"/>
<mask id="mask0_32_34" style="mask-type:luminance" maskUnits="userSpaceOnUse" x="0" y="0" width="10" height="6">
<path d="M4.99996 3.92504L1.91244 0.837522C1.68463 0.609716 1.31529 0.609716 1.08748 0.837522C0.859675 1.06533 0.859675 1.43467 1.08748 1.66248L4.58748 5.16248C4.81529 5.39029 5.18463 5.39029 5.41244 5.16248L8.91244 1.66248C9.14024 1.43467 9.14024 1.06533 8.91244 0.837522C8.68463 0.609716 8.31529 0.609716 8.08748 0.837522L4.99996 3.92504Z" fill="white"/>
</mask>
<g mask="url(#mask0_32_34)">
</g>
</svg>
